<svg fill="none" height="24" viewBox="0 0 24 24" width="24" xmlns="http://www.w3.org/2000/svg"><g fill="#000"><path d="m7.50023 15.4502c-.13 0-.26001-.03-.38001-.1l-4.5-2.6c-.23-.13-.37999-.38-.37999-.65v-5.19997c0-.27.13999-.52.37999-.65l4.5-2.6c.23-.13.52-.13.75 0l4.49998 2.6c.23.13.38.38.38.65v1.57c0 .41-.34.75-.75.75s-.75-.34-.75-.75v-1.14l-3.74997-2.16999-3.75 2.16999v4.32997l3.75 2.17 4.11997-2.38c.36-.21.82-.08 1.02.27.21.36.08.82-.27 1.02l-4.49998 2.6c-.11.07-.23999.11-.36999.11z"/><path d="m16.5002 20.6399c-.13 0-.26-.03-.38-.1l-4.5-2.6c-.23-.13-.38-.38-.38-.65v-1.65c0-.41.34-.75.75-.75s.75.34.75.75v1.22l3.75 2.17 3.75-2.17v-4.33l-3.75-2.17-4.12 2.38c-.36.21-.82.08-1.02-.27-.21-.36-.08-.82.27-1.02l4.5-2.59996c.23-.13.52-.13.75 0l4.5 2.59996c.23.13.38.38.38.65v5.2c0 .27-.14.52-.38.65l-4.5 2.6c-.11.06-.24.09-.37.09z"/></g></svg>